<?xml version="1.0" encoding="utf-8"?>
<!-- Generator: Adobe Illustrator 24.0.2, SVG Export Plug-In . SVG Version: 6.00 Build 0)  -->
<svg version="1.1" xmlns="http://www.w3.org/2000/svg" xmlns:xlink="http://www.w3.org/1999/xlink" x="0px" y="0px"
	 viewBox="0 0 24 24" style="enable-background:new 0 0 24 24;" xml:space="preserve">
<style type="text/css">
	.st0{fill:none;}
	.st1{fill:#121331;}
</style>
<g id="bounding_box">
	<rect class="st0" width="24" height="24"/>
</g>
<g id="design">
	<g>
		<path class="st1" d="M18.99,11.35C19,11.27,19,11.19,19,11.11V9.89C19,6.64,16.36,4,13.11,4H7.89C4.64,4,2,6.64,2,9.89V16
			c0,0.55,0.45,1,1,1h5.07c0.37,2.27,2.34,4,4.71,4H21c0.55,0,1-0.45,1-1v-4.22C22,13.77,20.75,12.04,18.99,11.35z M7.73,10.74
			c-0.02,0.08-0.04,0.16-0.08,0.24c-0.03,0.07-0.07,0.15-0.11,0.21c-0.05,0.07-0.1,0.14-0.16,0.19c-0.05,0.06-0.12,0.11-0.19,0.16
			c-0.07,0.04-0.14,0.08-0.21,0.11c-0.08,0.04-0.16,0.06-0.24,0.08c-0.08,0.01-0.16,0.02-0.24,0.02s-0.16-0.01-0.24-0.02
			c-0.08-0.02-0.16-0.04-0.24-0.08c-0.07-0.03-0.15-0.07-0.21-0.11c-0.07-0.05-0.14-0.1-0.19-0.16c-0.06-0.05-0.11-0.12-0.16-0.19
			c-0.04-0.06-0.08-0.14-0.11-0.21c-0.04-0.08-0.06-0.16-0.08-0.24c-0.01-0.08-0.02-0.16-0.02-0.24c0-0.33,0.13-0.65,0.37-0.88
			c0.45-0.47,1.3-0.47,1.76,0c0.06,0.05,0.11,0.12,0.16,0.19c0.04,0.06,0.08,0.14,0.11,0.21c0.04,0.08,0.06,0.16,0.08,0.24
			c0.01,0.08,0.02,0.16,0.02,0.24C7.75,10.58,7.74,10.66,7.73,10.74z M13.62,9.62c0.46-0.47,1.31-0.47,1.76,0
			c0.24,0.23,0.37,0.55,0.37,0.88c0,0.08-0.01,0.16-0.02,0.24c-0.02,0.08-0.04,0.16-0.08,0.24c0,0.01-0.01,0.01-0.01,0.02
			c-0.03,0.06-0.06,0.14-0.1,0.19c-0.05,0.07-0.1,0.14-0.16,0.19c-0.23,0.24-0.55,0.37-0.88,0.37s-0.65-0.13-0.88-0.37
			c-0.06-0.05-0.11-0.12-0.16-0.19c-0.04-0.05-0.07-0.13-0.1-0.19c0-0.01-0.01-0.01-0.01-0.02c-0.04-0.08-0.06-0.16-0.08-0.24
			c-0.01-0.08-0.02-0.16-0.02-0.24C13.25,10.17,13.38,9.85,13.62,9.62z M9.62,9.62c0.46-0.47,1.3-0.47,1.76,0
			c0.24,0.23,0.37,0.55,0.37,0.88c0,0.08-0.01,0.16-0.02,0.24c-0.02,0.08-0.04,0.16-0.08,0.24c-0.03,0.06-0.06,0.13-0.1,0.19
			c0,0.01-0.01,0.01-0.01,0.02c-0.05,0.07-0.1,0.14-0.16,0.19c-0.23,0.24-0.55,0.37-0.88,0.37c-0.08,0-0.16-0.01-0.24-0.02
			c-0.08-0.02-0.16-0.04-0.24-0.08c-0.07-0.03-0.15-0.07-0.21-0.11c-0.07-0.05-0.14-0.1-0.19-0.16c-0.06-0.05-0.11-0.12-0.16-0.19
			c-0.04-0.06-0.08-0.14-0.11-0.21c-0.04-0.08-0.06-0.16-0.08-0.24c-0.01-0.08-0.02-0.16-0.02-0.24C9.25,10.17,9.38,9.85,9.62,9.62z
			 M20,19h-7.22c-1.26,0-2.33-0.84-2.67-2h3c2.46,0,4.56-1.51,5.45-3.65c0.86,0.47,1.44,1.39,1.44,2.43V19z"/>
	</g>
</g>
</svg>
